<svg xmlns="http://www.w3.org/2000/svg" viewBox="0 0 1254 1254">
<rect width="1254" height="1254" fill="#ffffff"/>
<path d="M 504,874 L 497,881 L 496,884 L 497,891 L 549,968 L 549,1022 L 551,1027 L 554,1030 L 559,1032 L 564,1032 L 568,1030 L 574,1022 L 574,968 L 625,890 L 625,881 L 618,874 L 609,874 L 605,876 L 564,939 L 561,941 L 557,937 L 521,881 L 513,874 L 510,873 Z M 426,873 L 419,878 L 402,919 L 359,1017 L 359,1023 L 361,1027 L 368,1032 L 376,1032 L 380,1030 L 383,1027 L 393,1002 L 398,995 L 466,995 L 470,999 L 481,1026 L 488,1032 L 497,1032 L 501,1030 L 505,1025 L 506,1021 L 505,1015 L 446,879 L 439,873 L 435,872 Z M 431,914 L 433,914 L 435,916 L 435,917 L 436,918 L 436,919 L 437,920 L 437,922 L 438,923 L 438,924 L 439,925 L 439,927 L 440,928 L 440,929 L 441,930 L 441,931 L 442,932 L 442,934 L 443,935 L 443,936 L 444,937 L 444,938 L 445,939 L 445,941 L 446,942 L 446,943 L 447,944 L 447,945 L 448,946 L 448,948 L 449,949 L 449,950 L 450,951 L 450,952 L 451,953 L 451,955 L 452,956 L 452,957 L 453,958 L 453,959 L 454,960 L 454,962 L 455,963 L 455,964 L 456,965 L 456,967 L 457,968 L 456,969 L 456,970 L 455,971 L 410,971 L 408,969 L 408,967 L 409,966 L 409,964 L 410,963 L 410,962 L 411,961 L 411,960 L 412,959 L 412,957 L 413,956 L 413,955 L 414,954 L 414,953 L 415,952 L 415,950 L 416,949 L 416,948 L 417,947 L 417,945 L 418,944 L 418,943 L 419,942 L 419,941 L 420,940 L 420,938 L 421,937 L 421,936 L 422,935 L 422,934 L 423,933 L 423,931 L 424,930 L 424,929 L 425,928 L 425,927 L 426,926 L 426,924 L 427,923 L 427,922 L 428,921 L 428,920 L 429,919 L 429,917 L 430,916 L 430,915 Z M 181,874 L 176,881 L 177,1027 L 183,1032 L 190,1033 L 195,1031 L 201,1023 L 202,926 L 206,928 L 242,985 L 251,992 L 259,992 L 267,986 L 306,926 L 308,928 L 308,1023 L 316,1032 L 327,1031 L 333,1023 L 333,882 L 327,874 L 319,872 L 312,874 L 307,879 L 259,954 L 254,957 L 202,877 L 193,872 Z M 261,596 L 264,621 L 277,638 L 293,647 L 351,663 L 368,701 L 390,734 L 445,787 L 517,825 L 601,843 L 654,843 L 695,837 L 744,822 L 789,799 L 828,769 L 858,736 L 900,660 L 961,644 L 978,630 L 986,611 L 985,592 L 973,572 L 951,561 L 915,561 L 910,546 L 895,537 L 890,540 L 890,557 L 885,564 L 850,580 L 785,598 L 696,611 L 568,612 L 454,596 L 406,583 L 364,566 L 357,559 L 354,537 L 337,545 L 332,561 L 302,560 L 279,568 L 266,582 Z M 583,677 L 589,676 L 590,675 L 598,675 L 599,676 L 603,676 L 613,681 L 622,690 L 624,694 L 626,695 L 632,687 L 640,680 L 646,677 L 652,676 L 653,675 L 661,675 L 662,676 L 666,676 L 674,680 L 682,688 L 686,695 L 687,701 L 688,702 L 688,715 L 687,716 L 687,719 L 686,720 L 685,725 L 676,741 L 667,751 L 667,752 L 653,766 L 652,766 L 640,777 L 628,785 L 623,785 L 619,783 L 607,774 L 601,768 L 600,768 L 579,746 L 573,738 L 566,725 L 566,723 L 564,719 L 564,716 L 563,715 L 563,702 L 564,701 L 565,695 L 568,689 L 577,680 Z M 956,596 L 956,597 L 957,598 L 957,599 L 958,600 L 958,607 L 957,608 L 957,609 L 956,610 L 956,611 L 955,612 L 955,613 L 951,617 L 950,617 L 948,619 L 947,619 L 946,620 L 945,620 L 944,621 L 943,621 L 942,622 L 940,622 L 939,623 L 937,623 L 936,624 L 934,624 L 933,625 L 931,625 L 930,626 L 927,626 L 926,627 L 923,627 L 922,628 L 919,628 L 918,629 L 915,629 L 914,630 L 910,630 L 909,631 L 906,628 L 906,626 L 907,625 L 907,621 L 908,620 L 908,614 L 909,613 L 909,607 L 910,606 L 910,598 L 911,597 L 911,592 L 914,589 L 916,589 L 917,588 L 926,588 L 927,587 L 938,587 L 939,588 L 944,588 L 945,589 L 947,589 L 948,590 L 949,590 L 950,591 L 951,591 Z M 291,595 L 294,592 L 295,592 L 297,590 L 298,590 L 299,589 L 301,589 L 302,588 L 307,588 L 308,587 L 319,587 L 320,588 L 332,588 L 333,589 L 334,589 L 335,590 L 335,591 L 336,592 L 336,598 L 337,599 L 337,607 L 338,608 L 338,614 L 339,615 L 339,619 L 340,620 L 340,624 L 341,625 L 341,629 L 339,631 L 337,631 L 336,630 L 333,630 L 332,629 L 329,629 L 328,628 L 325,628 L 324,627 L 321,627 L 320,626 L 317,626 L 316,625 L 314,625 L 313,624 L 310,624 L 309,623 L 307,623 L 306,622 L 305,622 L 304,621 L 302,621 L 301,620 L 300,620 L 298,618 L 297,618 L 290,611 L 290,610 L 289,609 L 289,607 L 288,606 L 288,602 L 289,601 L 289,599 L 290,598 L 290,597 L 291,596 Z M 875,260 L 874,259 L 874,257 L 873,256 L 873,255 L 872,254 L 872,253 L 869,250 L 868,250 L 867,249 L 866,249 L 865,248 L 862,248 L 861,247 L 854,247 L 853,248 L 850,248 L 849,249 L 847,249 L 846,250 L 844,250 L 843,251 L 842,251 L 841,252 L 840,252 L 839,253 L 838,253 L 837,254 L 836,254 L 835,255 L 834,255 L 832,257 L 831,257 L 829,259 L 828,259 L 826,261 L 825,261 L 822,264 L 821,264 L 818,267 L 817,267 L 813,271 L 812,271 L 806,277 L 806,279 L 807,280 L 813,280 L 814,281 L 829,281 L 830,282 L 843,282 L 844,281 L 853,281 L 854,280 L 858,280 L 859,279 L 861,279 L 862,278 L 863,278 L 864,277 L 865,277 L 866,276 L 867,276 L 868,275 L 869,275 L 872,272 L 872,271 L 873,270 L 873,269 L 874,268 L 874,266 L 875,265 Z M 815,200 L 814,200 L 813,199 L 810,199 L 809,198 L 805,198 L 804,199 L 801,199 L 800,200 L 797,201 L 795,203 L 794,203 L 789,208 L 789,209 L 787,211 L 787,212 L 786,213 L 786,214 L 785,215 L 785,216 L 784,217 L 784,218 L 783,219 L 783,220 L 781,223 L 781,225 L 780,226 L 780,228 L 779,229 L 779,231 L 778,232 L 778,234 L 777,235 L 777,238 L 776,239 L 776,242 L 775,243 L 775,247 L 774,248 L 774,253 L 773,254 L 773,259 L 772,260 L 772,267 L 771,268 L 771,277 L 772,278 L 774,278 L 778,274 L 779,274 L 792,261 L 793,261 L 805,249 L 805,248 L 812,241 L 812,240 L 816,236 L 816,235 L 818,233 L 818,232 L 819,231 L 819,230 L 821,227 L 821,225 L 822,224 L 822,222 L 823,221 L 823,210 L 822,209 L 821,206 Z M 349,156 L 348,160 L 353,182 L 364,214 L 381,244 L 389,254 L 403,267 L 423,280 L 443,288 L 473,294 L 491,293 L 480,277 L 462,256 L 422,218 L 426,217 L 449,231 L 466,244 L 490,267 L 508,287 L 510,286 L 507,260 L 500,238 L 485,213 L 467,195 L 456,187 L 437,177 L 414,169 L 358,156 Z " fill="#73885a" fill-rule="evenodd"/>
<path d="M 815,389 L 814,389 L 813,390 L 813,392 L 812,393 L 812,399 L 811,400 L 810,407 L 809,408 L 807,413 L 805,415 L 805,416 L 803,419 L 803,422 L 802,423 L 801,426 L 798,429 L 794,438 L 791,441 L 791,442 L 789,444 L 789,445 L 787,447 L 787,448 L 784,451 L 784,452 L 778,460 L 777,463 L 771,470 L 771,471 L 769,473 L 769,474 L 767,476 L 767,477 L 759,486 L 759,487 L 753,495 L 753,497 L 756,497 L 757,496 L 758,496 L 760,494 L 761,494 L 763,492 L 764,492 L 767,489 L 768,489 L 771,486 L 772,486 L 774,484 L 775,484 L 777,482 L 778,482 L 780,480 L 781,480 L 784,477 L 785,477 L 788,474 L 789,474 L 794,469 L 795,469 L 797,467 L 798,467 L 813,451 L 813,450 L 817,445 L 817,444 L 818,443 L 818,441 L 819,440 L 819,439 L 822,434 L 822,432 L 823,431 L 823,428 L 824,427 L 824,423 L 825,422 L 825,414 L 824,413 L 824,408 L 823,407 L 823,404 Z M 799,379 L 796,379 L 790,382 L 780,392 L 779,392 L 779,393 L 776,396 L 776,397 L 772,402 L 771,405 L 767,410 L 766,413 L 764,415 L 761,423 L 756,430 L 755,436 L 752,442 L 749,446 L 749,448 L 745,455 L 745,458 L 738,470 L 738,473 L 735,479 L 735,481 L 733,485 L 731,487 L 726,497 L 726,499 L 724,502 L 723,507 L 721,510 L 721,513 L 723,513 L 724,512 L 724,511 L 727,508 L 727,507 L 732,501 L 732,500 L 737,495 L 737,494 L 746,483 L 746,482 L 748,480 L 750,476 L 753,473 L 755,469 L 760,464 L 760,463 L 765,457 L 768,451 L 774,444 L 774,443 L 782,432 L 786,424 L 788,422 L 796,406 L 796,404 L 799,398 L 799,395 L 800,394 L 800,389 L 801,388 L 800,380 Z M 780,371 L 772,371 L 771,370 L 768,370 L 767,371 L 764,371 L 761,373 L 759,373 L 758,374 L 749,378 L 739,388 L 739,389 L 735,394 L 735,395 L 733,398 L 733,400 L 728,409 L 728,412 L 727,413 L 727,416 L 726,417 L 726,420 L 725,421 L 725,425 L 724,426 L 724,429 L 723,430 L 723,436 L 722,437 L 722,444 L 721,445 L 721,451 L 720,452 L 720,460 L 719,461 L 719,467 L 718,468 L 718,477 L 717,478 L 717,479 L 719,481 L 719,480 L 722,476 L 722,475 L 724,472 L 724,470 L 729,461 L 729,458 L 730,457 L 730,455 L 741,434 L 742,429 L 745,425 L 745,424 L 750,415 L 750,413 L 751,412 L 752,409 L 758,401 L 759,398 L 761,396 L 761,395 L 764,391 L 764,390 L 769,385 L 769,384 L 781,372 Z M 869,325 L 803,313 L 741,314 L 678,328 L 646,342 L 631,353 L 631,599 L 650,596 L 692,524 L 692,511 L 702,504 L 707,443 L 721,391 L 736,371 L 768,357 L 800,362 L 826,382 L 838,410 L 837,430 L 828,452 L 812,472 L 738,525 L 737,537 L 725,546 L 699,594 L 789,582 L 848,565 L 875,553 L 876,334 Z M 378,324 L 370,336 L 370,551 L 386,560 L 417,571 L 479,586 L 542,595 L 613,598 L 615,596 L 615,356 L 612,351 L 599,342 L 570,329 L 536,319 L 513,315 L 441,313 L 395,319 Z M 424,508 L 426,504 L 430,500 L 432,499 L 564,499 L 568,503 L 569,505 L 569,512 L 567,515 L 561,518 L 433,518 L 431,517 L 425,511 Z M 424,457 L 427,453 L 427,452 L 431,448 L 433,448 L 434,447 L 561,447 L 568,452 L 570,456 L 570,459 L 569,461 L 565,465 L 559,468 L 556,468 L 555,467 L 433,467 L 429,465 L 425,461 L 425,459 Z M 424,407 L 427,403 L 427,402 L 432,398 L 562,398 L 566,400 L 569,403 L 569,405 L 570,406 L 570,408 L 568,412 L 563,416 L 437,416 L 436,417 L 433,417 L 432,416 L 430,416 L 426,412 Z " fill="#f7ecd9" fill-rule="evenodd"/>
<path d="M 957,936 L 948,946 L 943,956 L 943,958 L 941,962 L 941,965 L 940,966 L 940,972 L 939,973 L 939,983 L 940,984 L 940,990 L 941,991 L 941,994 L 947,1008 L 953,1015 L 953,1016 L 963,1024 L 971,1028 L 973,1028 L 977,1030 L 980,1030 L 981,1031 L 1001,1031 L 1002,1030 L 1005,1030 L 1017,1025 L 1022,1020 L 1025,1020 L 1028,1027 L 1034,1031 L 1039,1031 L 1043,1029 L 1045,1027 L 1047,1022 L 1047,972 L 1046,971 L 1046,965 L 1045,964 L 1045,961 L 1044,960 L 1043,955 L 1036,943 L 1029,936 L 1020,930 L 1010,926 L 1002,925 L 1001,924 L 985,924 L 984,925 L 976,926 L 964,931 L 958,936 Z M 990,942 L 996,942 L 997,943 L 1002,943 L 1003,944 L 1005,944 L 1006,945 L 1009,946 L 1011,948 L 1012,948 L 1020,956 L 1020,957 L 1022,959 L 1022,960 L 1024,963 L 1024,965 L 1025,966 L 1025,968 L 1026,969 L 1026,986 L 1025,987 L 1025,989 L 1024,990 L 1024,992 L 1023,993 L 1022,996 L 1020,998 L 1020,999 L 1012,1007 L 1011,1007 L 1009,1009 L 1008,1009 L 1007,1010 L 1005,1010 L 1002,1012 L 998,1012 L 997,1013 L 989,1013 L 988,1012 L 985,1012 L 984,1011 L 982,1011 L 981,1010 L 980,1010 L 979,1009 L 976,1008 L 974,1006 L 973,1006 L 967,1000 L 967,999 L 964,996 L 964,995 L 962,992 L 962,990 L 961,989 L 961,986 L 960,985 L 960,970 L 961,969 L 961,966 L 962,965 L 962,963 L 963,962 L 964,959 L 966,957 L 966,956 L 974,948 L 975,948 L 977,946 L 978,946 L 979,945 L 981,945 L 982,944 L 984,944 L 985,943 L 989,943 Z M 856,927 L 843,934 L 833,944 L 826,957 L 823,968 L 823,986 L 824,987 L 825,995 L 829,1005 L 833,1011 L 844,1022 L 853,1027 L 866,1031 L 889,1031 L 903,1027 L 909,1024 L 915,1019 L 917,1015 L 917,1011 L 913,1005 L 905,1004 L 895,1010 L 885,1013 L 867,1012 L 857,1007 L 849,999 L 846,994 L 844,987 L 847,984 L 919,984 L 921,983 L 924,979 L 924,964 L 921,953 L 918,947 L 908,935 L 899,929 L 891,926 L 883,925 L 882,924 L 869,924 L 868,925 L 863,925 Z M 844,965 L 845,964 L 845,962 L 846,961 L 846,960 L 847,959 L 847,958 L 848,957 L 848,956 L 857,947 L 858,947 L 859,946 L 860,946 L 861,945 L 862,945 L 863,944 L 865,944 L 866,943 L 869,943 L 870,942 L 881,942 L 882,943 L 885,943 L 886,944 L 888,944 L 889,945 L 890,945 L 891,946 L 892,946 L 901,955 L 901,956 L 903,958 L 903,959 L 904,960 L 904,962 L 905,963 L 905,967 L 903,969 L 847,969 L 844,966 Z M 657,877 L 653,884 L 653,1022 L 655,1026 L 662,1031 L 667,1031 L 675,1024 L 676,924 L 683,931 L 717,987 L 724,992 L 733,991 L 738,986 L 778,924 L 780,926 L 780,1024 L 788,1031 L 797,1029 L 802,1022 L 802,885 L 800,879 L 794,875 L 786,875 L 779,880 L 731,957 L 727,960 L 677,881 L 670,875 Z M 1077,874 L 1073,876 L 1069,881 L 1069,1024 L 1073,1029 L 1077,1031 L 1082,1031 L 1086,1029 L 1090,1024 L 1090,881 L 1085,875 L 1083,875 L 1082,874 Z M 427,506 L 427,511 L 428,513 L 433,516 L 562,516 L 564,515 L 567,512 L 568,510 L 568,506 L 567,504 L 563,501 L 510,501 L 509,500 L 498,500 L 497,501 L 486,501 L 485,500 L 448,500 L 447,501 L 432,501 L 430,502 Z M 427,455 L 427,460 L 428,462 L 432,465 L 563,465 L 565,464 L 568,460 L 568,456 L 566,452 L 563,450 L 432,450 L 430,451 Z M 427,405 L 427,410 L 428,412 L 432,415 L 562,415 L 564,414 L 567,411 L 568,409 L 568,405 L 567,403 L 563,400 L 432,400 L 430,401 Z " fill="#3f3f40" fill-rule="evenodd"/>
<path d="M 812,370 L 795,361 L 782,358 L 768,358 L 747,365 L 736,373 L 726,385 L 718,401 L 712,423 L 703,504 L 694,511 L 692,515 L 693,525 L 652,593 L 652,598 L 695,596 L 698,593 L 725,544 L 736,536 L 737,525 L 796,484 L 811,471 L 823,457 L 834,435 L 836,426 L 836,409 L 833,397 L 828,387 L 823,380 Z M 815,388 L 817,390 L 818,393 L 820,395 L 823,401 L 823,403 L 824,404 L 824,407 L 825,408 L 825,413 L 826,414 L 826,422 L 825,423 L 825,427 L 824,428 L 824,431 L 823,432 L 822,437 L 818,445 L 816,447 L 814,451 L 811,454 L 811,455 L 797,469 L 796,469 L 787,477 L 786,477 L 779,483 L 775,485 L 772,488 L 771,488 L 769,490 L 768,490 L 766,492 L 765,492 L 763,494 L 762,494 L 751,502 L 748,503 L 747,502 L 748,499 L 753,493 L 753,492 L 756,489 L 756,488 L 759,485 L 759,484 L 762,481 L 762,480 L 765,477 L 765,476 L 768,473 L 770,469 L 773,466 L 773,465 L 775,463 L 777,459 L 780,456 L 780,455 L 782,453 L 782,452 L 784,450 L 784,449 L 792,438 L 796,430 L 798,428 L 806,412 L 806,410 L 808,407 L 808,405 L 810,401 L 810,398 L 811,397 L 811,393 L 812,392 L 812,390 L 814,388 Z M 799,378 L 801,380 L 801,384 L 802,385 L 802,388 L 801,389 L 801,394 L 800,395 L 800,398 L 797,404 L 797,406 L 789,422 L 787,424 L 786,427 L 784,429 L 783,432 L 781,434 L 775,444 L 772,447 L 771,450 L 768,453 L 768,454 L 763,460 L 761,464 L 758,467 L 756,471 L 753,474 L 753,475 L 750,478 L 750,479 L 747,482 L 747,483 L 744,486 L 744,487 L 741,490 L 741,491 L 738,494 L 736,498 L 729,506 L 726,511 L 722,515 L 721,515 L 719,513 L 719,511 L 722,506 L 722,504 L 725,499 L 725,497 L 729,490 L 729,488 L 732,483 L 732,481 L 736,474 L 736,472 L 740,465 L 740,463 L 743,458 L 743,456 L 748,447 L 748,445 L 754,434 L 754,432 L 762,416 L 764,414 L 766,409 L 768,407 L 769,404 L 771,402 L 773,398 L 776,395 L 776,394 L 789,381 L 795,378 Z M 781,369 L 783,371 L 783,373 L 781,374 L 778,377 L 777,377 L 770,384 L 770,385 L 767,388 L 767,389 L 764,392 L 764,393 L 760,398 L 755,408 L 753,410 L 743,430 L 743,432 L 738,441 L 738,443 L 735,448 L 735,450 L 731,457 L 731,459 L 727,466 L 727,468 L 722,477 L 722,479 L 720,482 L 720,484 L 718,486 L 717,486 L 716,485 L 716,478 L 717,477 L 717,468 L 718,467 L 718,458 L 719,457 L 719,450 L 720,449 L 720,442 L 721,441 L 721,435 L 722,434 L 722,428 L 723,427 L 724,418 L 726,414 L 726,411 L 727,410 L 727,408 L 729,405 L 729,403 L 734,393 L 739,387 L 739,386 L 746,379 L 747,379 L 753,374 L 757,372 L 759,372 L 763,370 L 767,370 L 768,369 Z M 669,189 L 663,188 L 662,187 L 652,187 L 651,188 L 648,188 L 640,192 L 630,202 L 628,205 L 626,205 L 623,202 L 623,201 L 612,191 L 605,188 L 602,188 L 601,187 L 591,187 L 581,191 L 575,197 L 571,204 L 571,206 L 570,207 L 570,213 L 569,214 L 570,223 L 571,224 L 571,227 L 572,228 L 573,233 L 578,243 L 581,246 L 587,255 L 606,274 L 607,274 L 617,283 L 626,289 L 631,287 L 637,282 L 638,282 L 650,271 L 651,271 L 665,257 L 665,256 L 673,247 L 681,232 L 681,230 L 683,226 L 683,223 L 684,222 L 684,209 L 683,208 L 683,205 L 678,196 L 674,192 Z " fill="#d3703e" fill-rule="evenodd"/>
</svg>